<?xml version="1.0" standalone="no"?>
<!DOCTYPE svg PUBLIC "-//W3C//DTD SVG 20010904//EN"
 "http://www.w3.org/TR/2001/REC-SVG-20010904/DTD/svg10.dtd">
<svg version="1.0" xmlns="http://www.w3.org/2000/svg"
 width="512.000000pt" height="512.000000pt" viewBox="0 0 512.000000 512.000000"
 preserveAspectRatio="xMidYMid meet">
<metadata>
Created by potrace 1.11, written by Peter Selinger 2001-2013
</metadata>
<g transform="translate(0.000000,512.000000) scale(0.100000,-0.100000)"
fill="#000000" stroke="none">
<path d="M3585 3823 c-225 -51 -415 -194 -524 -392 l-27 -49 -68 53 c-127 98
-304 180 -471 217 -103 23 -314 32 -415 17 -483 -68 -878 -418 -999 -884 l-18
-67 -119 -3 c-89 -2 -136 -8 -189 -25 -252 -81 -429 -266 -494 -521 -28 -109
-23 -276 13 -384 75 -230 241 -395 473 -471 l88 -29 1365 0 c1299 0 1368 1
1435 19 304 80 530 322 590 631 13 62 15 243 4 285 -3 13 28 16 221 21 249 7
281 13 378 77 199 130 268 405 156 623 -29 57 -99 133 -157 170 -51 33 -171
81 -195 78 -4 -1 -32 -1 -63 0 l-57 1 -11 48 c-32 130 -103 258 -200 359 -104
108 -219 177 -356 216 -89 24 -275 30 -360 10z m320 -166 c233 -66 416 -275
450 -512 11 -76 13 -82 25 -104 14 -28 53 -36 109 -23 153 35 301 -37 364
-176 30 -66 30 -189 0 -254 -28 -62 -91 -128 -150 -158 -47 -24 -55 -25 -288
-28 l-240 -2 -49 85 c-141 243 -403 393 -691 395 l-60 0 -43 94 c-42 90 -75
147 -144 242 l-31 44 18 42 c78 177 246 317 435 363 67 16 226 12 295 -8z
m-1519 -147 c92 -15 109 -19 181 -44 312 -106 564 -357 658 -656 9 -30 28 -65
41 -77 23 -21 32 -22 137 -19 138 5 210 -9 325 -65 120 -58 223 -161 281 -281
23 -47 44 -97 47 -110 41 -189 28 -310 -48 -468 -70 -146 -206 -261 -380 -323
l-63 -22 -1320 -3 c-926 -2 -1339 0 -1385 8 -196 33 -376 193 -435 387 -20 65
-29 198 -17 253 6 25 13 56 16 70 15 66 79 172 143 235 129 129 296 182 487
156 130 -18 145 -8 160 103 10 73 62 227 103 303 163 307 462 514 798 556 54
7 221 5 271 -3z"/>
<path d="M1945 2694 c-23 -21 -27 -31 -22 -61 8 -45 22 -61 62 -69 65 -12 110
45 85 107 -23 55 -79 65 -125 23z"/>
<path d="M2585 2694 c-22 -23 -26 -35 -21 -63 7 -44 23 -60 69 -68 30 -5 40
-1 62 23 22 23 26 35 21 63 -7 44 -23 60 -69 68 -30 5 -40 1 -62 -23z"/>
<path d="M1793 2385 c-50 -35 -38 -177 27 -311 74 -153 235 -277 395 -303 77
-12 207 -6 268 13 227 72 391 285 392 508 0 112 47 103 -548 106 -450 2 -515
1 -534 -13z m913 -171 c-26 -103 -108 -199 -214 -251 -72 -36 -81 -38 -172
-38 -91 0 -100 2 -171 37 -44 22 -92 55 -115 80 -39 42 -104 157 -104 185 0
11 71 13 391 13 l391 0 -6 -26z"/>
</g>
</svg>
