<svg id="Capa_1" enable-background="new 0 0 510.036 510.036" height="512" viewBox="0 0 510.036 510.036" width="512" xmlns="http://www.w3.org/2000/svg"><g><path d="m509.018 85.5c0-47.145-38.355-85.5-85.5-85.5s-85.5 38.355-85.5 85.5c0 9.766 1.668 19.145 4.697 27.895-47.343-22.075-99.438-24.804-146.669-10.84 1.275-4.368 1.971-8.98 1.971-13.755 0-27.125-22.069-49.193-49.195-49.193-5.235 0-10.385.824-15.285 2.424-4.411-10.346-11.342-19.584-20.175-26.722-12.215-9.872-27.608-15.309-43.341-15.309-38.048 0-69.003 30.953-69.003 69s30.955 69 69.003 69l57.007-.005c-14.712 11.473-28.046 25.069-39.497 40.658-7.833 10.617 8.253 22.484 16.085 11.867l-.007.029c55.636-75.778 160.431-99.592 244.199-52.052 90.301 51.248 121.96 165.995 70.712 256.296s-165.995 121.96-256.296 70.712c-71.414-40.531-106.137-120.776-92.193-197.237 2.359-13.008-17.314-16.576-19.673-3.568l-.001-.05c-15.442 84.603 22.976 173.401 101.998 218.248 99.907 56.699 226.862 21.672 283.562-78.235 43.549-76.736 32.979-169.425-19.533-233.984 2.355.196 4.73.321 7.135.321 47.144 0 85.499-38.355 85.499-85.5zm-438.997 32.5c-27.02 0-49.002-21.981-49.002-49s21.982-49 49.002-49c23.039 0 42.688 15.662 47.784 38.088.724 3.185 2.957 5.815 5.982 7.047 3.023 1.231 6.46.908 9.202-.867 4.712-3.05 10.188-4.661 15.834-4.661 16.098 0 29.195 13.096 29.195 29.193s-13.097 29.193-29.196 29.193zm353.497-98c36.117 0 65.5 29.383 65.5 65.5s-29.383 65.5-65.5 65.5-65.5-29.383-65.5-65.5 29.383-65.5 65.5-65.5zm-168.5 450c92.636 0 168-75.364 168-168s-75.364-168-168-168-168 75.364-168 168 75.364 168 168 168zm0-316c81.607 0 148 66.393 148 148s-66.393 148-148 148-148-66.393-148-148 66.393-148 148-148zm-10 161.72v-107.55l-2.682 2.686c-3.763 3.769-9.893 4.22-13.897.709-4.388-3.848-4.556-10.534-.498-14.598l20.007-20.04c3.908-3.914 10.25-3.913 14.156.003l19.99 20.037c3.902 3.908 3.951 10.181-.011 14.143s-10.226 3.905-14.142-.012l-2.923-2.928v107.55c11.639 4.128 20 15.243 20 28.28 0 5.522-4.477 10-10 10s-10-4.478-10-10c0-5.514-4.486-10-10-10s-10 4.486-10 10c0 5.522-4.477 10-10 10s-10-4.478-10-10c0-13.036 8.361-24.152 20-28.28zm-52.009 48.655c3.905 3.905 3.905 10.237 0 14.143l-14.136 14.136c-4.191 3.619-10.186 3.957-14.143 0s-3.905-10.237 0-14.143l14.136-14.136c3.906-3.904 10.238-3.904 14.143 0zm124.018-124.75c-3.898-3.898-3.905-10.237 0-14.143l14.136-14.136c3.905-3.904 10.237-3.904 14.143 0 3.905 3.905 3.905 10.237 0 14.143l-14.136 14.136c-4.011 3.799-10.245 3.898-14.143 0zm-152.715-13.803c-3.619-4.191-3.957-10.186 0-14.143s10.237-3.905 14.143 0l14.136 14.136c3.904 3.905 3.904 10.237 0 14.143-3.905 3.905-10.237 3.905-14.143 0zm181.307 152.29c3.904 3.905 3.904 10.237 0 14.143-3.905 3.905-10.237 3.905-14.143 0l-14.136-14.136c-3.799-4.011-3.898-10.245 0-14.143s10.237-3.905 14.143 0zm33.073-43.32c-1.448 5.405-6.913 8.5-12.248 7.071l-19.31-5.174c-5.334-1.43-8.5-6.914-7.071-12.248 1.43-5.334 6.913-8.5 12.248-7.071l19.31 5.174c5.23 1.821 8.52 6.842 7.071 12.248zm-247.303-65.73c1.43-5.334 6.913-8.5 12.248-7.071l19.31 5.174c5.296 1.574 8.498 6.923 7.071 12.248s-6.913 8.5-12.248 7.071l-19.31-5.174c-5.334-1.43-8.5-6.913-7.071-12.248zm31.674 67.606-19.31 5.174c-5.334 1.429-10.8-1.666-12.248-7.071s1.842-10.427 7.071-12.248l19.31-5.174c5.334-1.429 10.818 1.737 12.248 7.071 1.428 5.335-1.738 10.818-7.071 12.248zm184.188-69.524 19.31-5.174c5.334-1.429 10.818 1.737 12.248 7.071 1.429 5.334-1.737 10.818-7.071 12.248l-19.31 5.174c-5.334 1.429-10.821-1.747-12.248-7.071s1.775-10.673 7.071-12.248zm-274.065-33.645c-5.522 0-10-4.477-10-10s4.477-10 10-10 10 4.477 10 10-4.478 10-10 10z"/></g></svg>